<?xml version='1.0' encoding='utf-8'?>
<svg xmlns:xlink="http://www.w3.org/1999/xlink" xmlns="http://www.w3.org/2000/svg" viewBox="0 0 200 200"> <defs> <filter id="g"> <feGaussianBlur stdDeviation="17.83403"/> </filter> <linearGradient id="a"> <stop stop-color="#6f0" offset="0"/> <stop stop-color="#250" offset="1"/> </linearGradient> <linearGradient id="f" x1="390.78" x2="415.94" gradientUnits="userSpaceOnUse"> <stop stop-color="#502d16" offset="0"/> <stop stop-color="#c87137" offset="1"/> </linearGradient> <linearGradient id="e" x1="400.89" x2="401.32" y1="-88.722" y2="30.758" gradientUnits="userSpaceOnUse" xlink:href="#a"/> <linearGradient id="d" x2="0" y1="-113.34" y2="-20.898" gradientUnits="userSpaceOnUse" xlink:href="#a"/> <linearGradient id="c" x2="0" y1="-124.89" y2="-61.593" gradientUnits="userSpaceOnUse" xlink:href="#a"/> <linearGradient id="b" x2="0" y1="-134.94" y2="-92.403" gradientUnits="userSpaceOnUse" xlink:href="#a"/> </defs> <g transform="translate(-301.32 145.25)"> <path transform="matrix(.25327 0 0 .24741 300.02 -204)" d="m400 280.24s-39.708 60.751-58.312 85.656c-18.9 25.301-66.625 81.5-66.625 81.5s22.678 2.5935 36.531 1.875c-1.2161 1.6617-2.4699 3.4018-3.5938 4.9062-29.812 39.909-105.09 128.53-105.09 128.53s24.109 2.784 44.844 3.1562c-49.662 63.044-131.97 159.91-131.97 159.91s60.984 7.036 90.844 3.7188c-61.863 78.087-158.66 192.06-158.66 192.06s82.539 9.5523 117.31 4c37.004-5.9086 117.31-42.906 117.31-42.906s47.488 23.204 86.5 33.781v66.594h61.812v-66.594c32.695-8.8643 71.336-26.616 83-32.125 2.2535-1.0642 3.5-1.6562 3.5-1.6562s57.188 26.315 97.281 38.094c7.4248 2.1813 14.249 3.8893 20.031 4.8125 7.6066 1.2146 17.499 1.6902 28.312 1.7188 1.5448 4e-3 3.109 0.0141 4.6875 0 3.157-0.0282 6.3812-0.0955 9.625-0.1875 35.682-1.0118 74.688-5.5312 74.688-5.5312s-18.894-22.255-45.344-53.844c-33.434-39.931-78.773-94.621-113.31-138.22 29.86 3.3173 90.844-3.7188 90.844-3.7188s-82.306-96.862-131.97-159.91c20.735-0.37227 44.844-3.1562 44.844-3.1562s-75.281-88.622-105.09-128.53c-1.1238-1.5044-2.3777-3.2446-3.5938-4.9062 13.853 0.71847 36.531-1.875 36.531-1.875s-47.725-56.199-66.625-81.5c-18.604-24.905-58.312-85.656-58.312-85.656z" filter="url(#g)"/> <path d="m393.5 26.058h15.659v18.108h-15.659z" fill="url(#f)" stroke="#000" stroke-dashoffset="75" stroke-width="1.5"/> <path d="m377.32-27.254s-16.434 7.3824-24 8.5626c-0.30891 0.0482-0.65647 0.0877-1 0.12501-15.663 19.322-40.157 47.532-40.157 47.532s20.912 2.3425 29.719 0.9688c9.3721-1.4618 29.688-10.594 29.688-10.594s20.202 9.6251 29.75 9.6251 29.75-9.6251 29.75-9.6251 20.316 9.1321 29.688 10.594c8.807 1.3737 29.719-0.9688 29.719-0.9688s-24.494-28.21-40.157-47.532c-0.34353-0.0373-0.69109-0.0768-1-0.12501-7.5661-1.1801-24-8.5626-24-8.5626s-16.292 7.7813-24 7.7813-24-7.7813-24-7.7813z" fill="url(#e)" stroke="#000" stroke-dashoffset="75" stroke-width="1.5"/> <path d="m384.67-65.223s-11.378 5.1191-16.625 5.9376c-1.3658 0.21304-3.2698 0.25167-5.2813 0.21875-12.576 15.597-33.407 39.594-33.407 39.594s16.859 1.8902 23.969 0.78125c7.5661-1.1801 24-8.5626 24-8.5626s16.292 7.7813 24 7.7813 24-7.7813 24-7.7813 16.434 7.3824 24 8.5626c7.11 1.109 23.969-0.78125 23.969-0.78125s-20.83-23.997-33.407-39.594c-2.0115 0.0329-3.9155-6e-3 -5.2813-0.21875-5.2471-0.81842-16.625-5.9376-16.625-5.9376s-11.311 5.4063-16.656 5.4063-16.656-5.4063-16.656-5.4063z" fill="url(#d)" stroke="#000" stroke-dashoffset="75" stroke-width="1.5"/> <path d="m390.76-96.723s-7.2048 3.2624-10.531 3.7813c-0.39074 0.0609-0.84172 0.10123-1.3438 0.125-0.27971 0.37276-0.61492 0.8474-0.87501 1.1875-7.5506 9.8738-26.594 31.813-26.594 31.813s11.694 1.3003 16.625 0.53125c5.2471-0.81842 16.625-5.9376 16.625-5.9376s11.311 5.4063 16.656 5.4063 16.656-5.4063 16.656-5.4063 11.378 5.1191 16.625 5.9376c4.9307 0.76908 16.625-0.53125 16.625-0.53125s-19.043-21.939-26.594-31.813c-0.2601-0.34011-0.59531-0.81475-0.87501-1.1875-0.50205-0.0238-0.95302-0.0641-1.3438-0.125-3.3265-0.51886-10.531-3.7813-10.531-3.7813s-7.1735 3.4063-10.563 3.4063-10.563-3.4063-10.563-3.4063z" fill="url(#c)" stroke="#000" stroke-dashoffset="75" stroke-width="1.5"/> <path d="m401.32-134.66s10.058 15.03 14.77 21.192c4.7869 6.2597 16.877 20.162 16.877 20.162s-7.4198 0.8371-10.546 0.34954c-3.3265-0.51887-10.546-3.7673-10.546-3.7673s-7.1664 3.4177-10.556 3.4177-10.556-3.4177-10.556-3.4177-7.2192 3.2484-10.546 3.7673c-3.126 0.48756-10.546-0.34954-10.546-0.34954s12.09-13.903 16.877-20.162c4.712-6.1617 14.77-21.192 14.77-21.192z" fill="url(#b)" stroke="#000" stroke-dashoffset="75" stroke-width="1.5"/> </g> </svg>